<?xml version="1.0" encoding="utf-8"?>
<!-- Generator: Adobe Illustrator 26.3.1, SVG Export Plug-In . SVG Version: 6.00 Build 0)  -->
<svg version="1.1" id="versa-logo" xmlns="http://www.w3.org/2000/svg" xmlns:xlink="http://www.w3.org/1999/xlink" x="0px" y="0px"
	 viewBox="0 0 186.8 186.7" style="enable-background:new 0 0 186.8 186.7;" xml:space="preserve">
<style type="text/css">
	.st0{fill:#F37D6E;}
</style>
<path id="versa-logo-plus" class="st0" d="M179.5,110.5c-9,7.6-28.1,5.1-42.3,6.1l-0.8,0.1c-33.2,0.4-12,48.2-25.9,62.9
	c-3.1,3.8-7.6,6-12.4,6.8C64,190.5,72.5,155.7,69.6,132c-5.2-27.2-43.6-8.4-60.6-20.2c-12.8-7.8-11.8-32.3,2.5-38
	c12.8-5.3,29.6-1.8,43.3-4.2c27.4-4.3,7.9-48.3,21.5-62.2c8.6-10.5,29.2-9.5,35.8,2.3c6.8,12.8,2.6,31,5.3,45.2
	c1.5,10.6,9.4,14.8,19.5,15.4c17.7,1.8,40.1-3.5,47.8,12.8C188.5,91.8,187.3,104.1,179.5,110.5L179.5,110.5z"/>
</svg>
