<svg xmlns="http://www.w3.org/2000/svg" id="Layer_2" viewBox="0 0 1010.57 320.62">
	<defs>
		<style>.cls-1{fill:#f37d6e;}.cls-2{fill:#231f20;}</style>
	</defs>
	<g id="Layer_1-2">
		<path id="versa-logo-plus" class="cls-1" d="M1003.31,116.24c-9.03,7.61-28.08,5.05-42.32,6.07l-.83,.06c-33.16,.39-11.99,48.16-25.87,62.89-3.06,3.78-7.58,6.03-12.42,6.84-34.08,4.15-25.57-30.67-28.52-54.43-5.21-27.19-43.62-8.43-60.63-20.22-12.78-7.76-11.76-32.35,2.53-38.02,12.78-5.29,29.62-1.76,43.34-4.23,27.38-4.28,7.94-48.33,21.47-62.22,8.57-10.53,29.2-9.51,35.81,2.29,6.8,12.8,2.58,30.96,5.26,45.16,1.54,10.61,9.42,14.84,19.5,15.38,17.73,1.79,40.06-3.54,47.76,12.83,3.91,8.89,2.73,21.19-5.09,27.6Z"></path>
		<path id="versa-logo-letter-a" class="cls-2" d="M913.52,272.95c-14.42,4.86-31.81-1.63-47.32-1.83-12.61-.62-22.74,5.47-31.77,14.88-7.06,6.97-14.35,15.24-22.91,20.94-19.04,13.19-45.19,14.01-65.8,3.84-31.74-14.71-47.32-53.19-40.24-86.47,2.92-14.82,10.06-28.45,20.66-39.31,9.9-10.46,28.13-21.62,35.01-31.88,11.59-16.24-10.9-22.4-24.74-24.77-12.1-2.67-28.89-3.54-36.35-13.64-4.92-8.9,3.21-16.97,14.23-21.84,10.86-4.53,23.21-5,34.72-2.83,65.16,12.43,73.87,95.07,128.16,124.53,14.71,9.11,34.58,15.56,45.53,28.69l.12,.15c9.29,11.16,3.9,25.3-9.3,29.53Zm-140.64-32.53c14.81-5.14,38.32-21.42,29.67-38-16-23.34-82.95,1.91-76.69,30.46,6.47,16.3,32.38,12.97,46.73,7.65l.29-.1h0Z"></path>
		<path id="versa-logo-letter-s" class="cls-2" d="M531.87,241.32c-18.78-10.87-36.72-26.01-43.54-46.51-15.38-43.12,23.17-84.97,68.41-77.56,9.74,1.45,22.68,5.94,25.26,16.04,2.51,11.63-8.17,21.6-10.73,31.7-3.22,10.15,4.65,17.47,14.93,18.67,15.35,1.82,30.39-8.41,34.77-22.18,4.81-15.86-4.42-37.25-14.02-51.32-11.29-15.69-29.56-27.64-37.05-45.65-4.77-10.61-.96-22.05,8.5-27.84,21.33-13.12,60.72-8.94,81.65,6.81,4.35,3.26,9.37,9.21,7.47,14.49-2.22,5.13-8.79,6.82-14.16,7.74-6.41,.97-12.35,.8-18.62,1.37-3.03,.32-6.49,.73-8.84,2.55-7.12,6.71,10.22,20.88,15.11,27.03,6.35,6.87,11.72,14.79,16.59,22.35,22.67,33.01,32.38,77.13,12.28,110.77-27.38,47.01-94.36,37.63-137.76,11.65l-.22-.13Z"></path>
		<path id="versa-logo-letter-r" class="cls-2" d="M467.91,282.74c-8.76-2.86-16.63-7.9-23.66-13.86-7.64-6.41-15.13-15.02-22.15-21.6-7.99-7.18-17.56-15.83-24.35-4.62-6.15,10.76-7.86,26.12-16.87,36.31-9.32,11.25-26.35,11.3-36.89,.86-18.67-18.45-15.02-49.19-15.12-73.6,1.32-34.13-5.96-70.24,7.37-102.41,8.46-20.44,25.79-36.32,46.32-44.36,18.61-7.42,40.19-9.4,59.68-4.77,28.08,6.04,47.62,30.54,30.63,56.62-10.09,16.08-30.03,25.9-37.18,43.03-7.26,18.72,8.02,35.77,20.45,48.55,13.11,13.32,29.05,26.05,39.52,41.17l.14,.2c18.37,25.77,3.36,48.03-27.9,38.48Zm-46.1-162.92c-2.48-9.52-13.53-5.67-19.12-1.15-8.4,6.14-16.38,17.37-18.98,28.14-1.76,6.31-1.09,16.06,7.19,16.01,8.64-.41,16.86-8.15,22.48-15.73l.19-.27c5.69-8.21,10.14-18.08,8.23-26.99Z"></path>
		<path id="versa-logo-letter-e" class="cls-2" d="M299.64,253.72c14.61,22.72,8.53,61.6-20.82,66.52-29.2,3.95-59.94-23.65-75.17-46.93-19.97-30.34-22.62-67.39-17.15-102,4.45-29.13,16.17-59.77,41.95-76.21,15.72-10.65,39.45-14.73,56.39-6.16,4.06,2.01,7.96,5.14,10.1,8.43,14.81,26.18-35.19,37.77-51.34,49.08-4.71,2.88-9.68,6.52-13.34,10.29-6.85,7.05-6.46,11.91,4.96,10.68,9.5-.77,24.74-4.2,34.27-1.82,16.83,4.26,14.39,19.89,1.83,29.55-13.38,11.64-40.08,18.98-48.12,35.44-1.91,5.56,4.83,6.25,8.94,6,10.84-.33,23.91-4.25,36.43-3.06,12.86,1.09,24.29,9,30.95,19.98l.12,.2h0Z"></path>
		<path id="versa-logo-letter-v" class="cls-2" d="M148.33,273.58c-8.44,20.75-32.96,19.59-49.6,7.19-23.59-17.14-36.49-46-49.52-71.47-13.3-27.41-26.94-54.68-37.88-83.23C5.54,110.67,.13,93.11,.02,76.97c-.53-20.18,10.9-33.22,27.49-15.16,22.56,26.22,25.57,68.71,39.13,100.51,2.45,5.93,10.43,23.41,16.84,15.63,5.89-7.87,5.65-30.94,5.69-43.02,.2-37.38-3.08-79.15,15.51-113.24,13.37-24.15,43.12-31.94,56.63-3.44,7.49,16.64,5.17,36.64,1.17,54.21-9.08,37.65-26.04,73.86-22.42,113.01l.02,.28c1.03,28,18.01,61.52,8.25,87.83Z"></path>
	</g>
</svg>